<?xml version="1.0" encoding="UTF-8" standalone="no"?>
<!DOCTYPE svg PUBLIC "-//W3C//DTD SVG 1.1//EN" "http://www.w3.org/Graphics/SVG/1.1/DTD/svg11.dtd">
<svg width="100%" height="100%" viewBox="0 0 1600 1600" version="1.1" xmlns="http://www.w3.org/2000/svg" xmlns:xlink="http://www.w3.org/1999/xlink" xml:space="preserve" xmlns:serif="http://www.serif.com/" style="fill-rule:evenodd;clip-rule:evenodd;stroke-linejoin:round;stroke-miterlimit:2;">
    <g transform="matrix(50,0,0,50,0,0)">
        <path d="M16,32C24.837,32 32,24.837 32,16C32,7.163 24.837,0 16,0C7.163,0 0,7.163 0,16C0,24.837 7.163,32 16,32ZM16,3.556C9.127,3.556 3.556,9.127 3.556,16C3.556,22.873 9.127,28.444 16,28.444L16,25.334C10.88,25.334 6.667,21.121 6.667,16.001C6.667,10.881 10.88,6.668 16,6.668C21.12,6.668 25.332,10.88 25.333,16L28.444,16C28.444,9.126 22.873,3.555 16,3.555L16,3.556ZM8.533,16C8.533,20.096 11.904,23.467 16,23.467L16,20.752C13.394,20.751 11.25,18.607 11.25,16.001C11.25,13.395 13.395,11.25 16.001,11.25C18.607,11.25 20.751,13.394 20.752,16L23.467,16C23.467,11.904 20.096,8.533 16,8.533C11.904,8.533 8.533,11.904 8.533,16Z" style="fill:white;"/>
    </g>
</svg>
