<?xml version="1.0" encoding="UTF-8" standalone="no"?>
<!DOCTYPE svg PUBLIC "-//W3C//DTD SVG 1.1//EN" "http://www.w3.org/Graphics/SVG/1.1/DTD/svg11.dtd">
<svg width="100%" height="100%" viewBox="0 0 2500 2500" version="1.1" xmlns="http://www.w3.org/2000/svg" xmlns:xlink="http://www.w3.org/1999/xlink" xml:space="preserve" xmlns:serif="http://www.serif.com/" style="fill-rule:evenodd;clip-rule:evenodd;stroke-linejoin:round;stroke-miterlimit:2;">
    <g transform="matrix(3.125,0,0,3.125,0,0)">
        <circle cx="400" cy="400" r="400" style="fill:rgb(255,69,0);"/>
    </g>
    <g transform="matrix(3.125,0,0,3.125,0,0)">
        <path d="M666.8,400C666.88,405.48 666.2,410.95 664.76,416.24C663.32,421.53 661.14,426.6 658.28,431.28C655.43,435.96 651.93,440.22 647.89,443.93C643.85,447.64 639.31,450.76 634.4,453.2C634.51,454.66 634.6,456.13 634.65,457.6C634.77,460.532 634.77,463.468 634.65,466.4C634.6,467.87 634.51,469.34 634.4,470.8C634.4,560.4 530,633.2 401.2,633.2C272.4,633.2 168,560.4 168,470.8C167.89,469.34 167.8,467.87 167.75,466.4C167.63,463.468 167.63,460.532 167.75,457.6C167.8,456.13 167.89,454.66 168,453.2C152.44,446.048 140.785,432.406 136.15,415.92C131.523,399.427 134.377,381.706 143.95,367.5C153.515,353.296 168.862,343.999 185.88,342.1C202.9,340.192 219.926,345.865 232.4,357.6C243.848,349.84 255.843,342.919 268.29,336.89C280.74,330.87 293.61,325.75 306.8,321.59C319.99,317.43 333.47,314.24 347.12,312.03C360.77,309.82 374.57,308.61 388.4,308.4L418,169.6C418.33,167.99 418.98,166.47 419.91,165.11C420.83,163.76 422.02,162.6 423.39,161.71C424.77,160.82 426.31,160.21 427.93,159.91C429.54,159.62 431.2,159.65 432.8,160L530.8,179.6C540.69,162.61 561.45,155.33 579.78,162.41C598.11,169.49 608.59,188.84 604.49,208.06C600.4,227.28 582.94,240.68 563.32,239.67C543.69,238.66 527.7,223.54 525.6,204L440,186L414,310.8C427.66,311.09 441.29,312.37 454.77,314.62C481.764,319.12 507.968,327.493 532.57,339.48C544.858,345.46 556.698,352.318 568,360C576.125,352.199 586.338,346.915 597.4,344.79C608.462,342.657 619.908,343.772 630.35,348C640.793,352.226 649.794,359.385 656.26,368.61C662.728,377.836 666.39,388.74 666.8,400ZM269.84,455.31C271.86,460.16 274.8,464.57 278.52,468.28C282.23,472 286.64,474.94 291.49,476.96C296.344,478.968 301.547,480.001 306.8,480C322.98,480 337.56,470.25 343.76,455.31C349.95,440.36 346.52,423.16 335.08,411.72C323.64,400.28 306.44,396.85 291.49,403.04C276.55,409.24 266.8,423.82 266.8,440C266.8,445.25 267.83,450.45 269.84,455.31ZM499.2,550C501.25,548 502.16,546.6 502.2,543.74C502.24,540.87 501.13,538.11 499.13,536.06C497.13,534.01 494.4,532.84 491.54,532.8C488.67,532.76 485.91,533.87 483.6,535.6C477.585,539.914 471.216,543.711 464.56,546.95C457.904,550.191 450.986,552.863 443.88,554.94C436.78,557.01 429.51,558.48 422.16,559.33C414.8,560.18 407.39,560.4 400,560C392.62,560.33 385.22,560.03 377.89,559.11C370.558,558.199 363.318,556.66 356.25,554.51C349.17,552.37 342.3,549.63 335.69,546.33C329.08,543.03 322.76,539.17 316.8,534.8C314.73,533.1 312.1,532.23 309.42,532.36C306.74,532.49 304.21,533.62 302.31,535.51C300.42,537.41 299.29,539.94 299.16,542.62C299.03,545.3 299.9,547.93 301.6,550C308.63,555.3 316.1,559.98 323.93,564C331.76,568.02 339.93,571.35 348.33,573.97C356.73,576.59 365.34,578.48 374.07,579.63C382.8,580.77 391.61,581.16 400.4,580.8C409.19,581.16 418,580.77 426.73,579.63C444.215,577.33 461.175,572.043 476.87,564C484.7,559.98 492.17,555.3 499.2,550ZM491.6,483.2C497.02,483.26 502.4,482.21 507.41,480.13C512.42,478.04 516.95,474.96 520.73,471.07C524.51,467.18 527.45,462.56 529.39,457.49C531.331,452.426 532.219,447.019 532,441.6C532,425.42 522.25,410.84 507.31,404.64C492.36,398.45 475.16,401.88 463.72,413.32C452.28,424.76 448.85,441.96 455.04,456.91C461.24,471.85 475.42,483.2 491.6,483.2Z" style="fill:white;fill-rule:nonzero;"/>
    </g>
</svg>
