<?xml version="1.0" encoding="UTF-8" standalone="no"?>
<!DOCTYPE svg PUBLIC "-//W3C//DTD SVG 1.1//EN" "http://www.w3.org/Graphics/SVG/1.1/DTD/svg11.dtd">
<svg width="100%" height="100%" viewBox="0 0 2500 2500" version="1.1" xmlns="http://www.w3.org/2000/svg" xmlns:xlink="http://www.w3.org/1999/xlink" xml:space="preserve" xmlns:serif="http://www.serif.com/" style="fill-rule:evenodd;clip-rule:evenodd;stroke-linejoin:round;stroke-miterlimit:2;">
    <g transform="matrix(3.125,0,0,3.125,0,0)">
        <path d="M400,0C620.766,0 800,179.234 800,400C800,620.766 620.766,800 400,800C179.234,800 0,620.766 0,400C0,179.234 179.234,0 400,0ZM666.8,400C666.39,388.74 662.728,377.836 656.26,368.61C649.794,359.385 640.793,352.226 630.35,348C619.908,343.772 608.462,342.657 597.4,344.79C586.338,346.915 576.125,352.199 568,360C556.698,352.318 544.858,345.46 532.57,339.48C507.968,327.493 481.764,319.12 454.77,314.62C441.29,312.37 427.66,311.09 414,310.8L440,186L525.6,204C527.7,223.54 543.69,238.66 563.32,239.67C582.94,240.68 600.4,227.28 604.49,208.06C608.59,188.84 598.11,169.49 579.78,162.41C561.45,155.33 540.69,162.61 530.8,179.6L432.8,160C431.2,159.65 429.54,159.62 427.93,159.91C426.31,160.21 424.77,160.82 423.39,161.71C422.02,162.6 420.83,163.76 419.91,165.11C418.98,166.47 418.33,167.99 418,169.6L388.4,308.4C374.57,308.61 360.77,309.82 347.12,312.03C333.47,314.24 319.99,317.43 306.8,321.59C293.61,325.75 280.74,330.87 268.29,336.89C255.843,342.919 243.848,349.84 232.4,357.6C219.926,345.865 202.9,340.192 185.88,342.1C168.862,343.999 153.515,353.296 143.95,367.5C134.377,381.706 131.523,399.427 136.15,415.92C140.785,432.406 152.44,446.048 168,453.2C167.89,454.66 167.8,456.13 167.75,457.6C167.63,460.532 167.63,463.468 167.75,466.4C167.8,467.87 167.89,469.34 168,470.8C168,560.4 272.4,633.2 401.2,633.2C530,633.2 634.4,560.4 634.4,470.8C634.51,469.34 634.6,467.87 634.65,466.4C634.77,463.468 634.77,460.532 634.65,457.6C634.6,456.13 634.51,454.66 634.4,453.2C639.31,450.76 643.85,447.64 647.89,443.93C651.93,440.22 655.43,435.96 658.28,431.28C661.14,426.6 663.32,421.53 664.76,416.24C666.2,410.95 666.88,405.48 666.8,400ZM499.2,550C492.17,555.3 484.7,559.98 476.87,564C461.175,572.043 444.215,577.33 426.73,579.63C418,580.77 409.19,581.16 400.4,580.8C391.61,581.16 382.8,580.77 374.07,579.63C365.34,578.48 356.73,576.59 348.33,573.97C339.93,571.35 331.76,568.02 323.93,564C316.1,559.98 308.63,555.3 301.6,550C299.9,547.93 299.03,545.3 299.16,542.62C299.29,539.94 300.42,537.41 302.31,535.51C304.21,533.62 306.74,532.49 309.42,532.36C312.1,532.23 314.73,533.1 316.8,534.8C322.76,539.17 329.08,543.03 335.69,546.33C342.3,549.63 349.17,552.37 356.25,554.51C363.318,556.66 370.558,558.199 377.89,559.11C385.22,560.03 392.62,560.33 400,560C407.39,560.4 414.8,560.18 422.16,559.33C429.51,558.48 436.78,557.01 443.88,554.94C450.986,552.863 457.904,550.191 464.56,546.95C471.216,543.711 477.585,539.914 483.6,535.6C485.91,533.87 488.67,532.76 491.54,532.8C494.4,532.84 497.13,534.01 499.13,536.06C501.13,538.11 502.24,540.87 502.2,543.74C502.16,546.6 501.25,548 499.2,550ZM269.84,455.31C267.83,450.45 266.8,445.25 266.8,440C266.8,423.82 276.55,409.24 291.49,403.04C306.44,396.85 323.64,400.28 335.08,411.72C346.52,423.16 349.95,440.36 343.76,455.31C337.56,470.25 322.98,480 306.8,480C301.547,480.001 296.344,478.968 291.49,476.96C286.64,474.94 282.23,472 278.52,468.28C274.8,464.57 271.86,460.16 269.84,455.31ZM491.6,483.2C475.42,483.2 461.24,471.85 455.04,456.91C448.85,441.96 452.28,424.76 463.72,413.32C475.16,401.88 492.36,398.45 507.31,404.64C522.25,410.84 532,425.42 532,441.6C532.219,447.019 531.331,452.426 529.39,457.49C527.45,462.56 524.51,467.18 520.73,471.07C516.95,474.96 512.42,478.04 507.41,480.13C502.4,482.21 497.02,483.26 491.6,483.2Z" style="fill:white;"/>
    </g>
</svg>
