<?xml version="1.0" encoding="UTF-8" standalone="no"?>
<!DOCTYPE svg PUBLIC "-//W3C//DTD SVG 1.1//EN" "http://www.w3.org/Graphics/SVG/1.1/DTD/svg11.dtd">
<svg width="100%" height="100%" viewBox="0 0 64 64" version="1.1" xmlns="http://www.w3.org/2000/svg" xmlns:xlink="http://www.w3.org/1999/xlink" xml:space="preserve" xmlns:serif="http://www.serif.com/" style="fill-rule:evenodd;clip-rule:evenodd;stroke-linejoin:round;stroke-miterlimit:2;">
    <g transform="matrix(1.42519,0,0,1.42509,-9.70329,-10.8954)">
        <path d="M29.261,7.645C41.654,7.645 51.715,17.706 51.715,30.098C51.715,42.491 41.654,52.551 29.261,52.551C16.869,52.551 6.808,42.491 6.808,30.098C6.808,17.706 16.869,7.645 29.261,7.645ZM26.221,43.851C25.791,43.851 25.434,44.208 25.434,44.638C25.434,45.067 25.791,45.425 26.221,45.425C26.65,45.425 27.008,45.067 27.008,44.638C27.008,44.208 26.65,43.851 26.221,43.851ZM32.302,43.851C31.873,43.851 31.515,44.208 31.515,44.638C31.515,45.067 31.873,45.425 32.302,45.425C32.732,45.425 33.09,45.067 33.09,44.638C33.113,44.208 32.756,43.851 32.302,43.851ZM35.546,42.73C35.021,42.73 34.616,43.135 34.616,43.66C34.616,44.185 35.021,44.59 35.546,44.59C36.071,44.59 36.476,44.185 36.476,43.66C36.476,43.135 36.071,42.73 35.546,42.73ZM41.795,37.411C41.056,37.411 40.459,38.007 40.459,38.723C40.459,39.462 41.056,40.058 41.795,40.058C42.534,40.058 43.131,39.462 43.131,38.723C43.131,38.007 42.534,37.411 41.795,37.411ZM43.774,33.356C43.202,33.356 42.677,33.642 42.391,34.119C42.105,34.596 42.105,35.216 42.391,35.693C42.677,36.17 43.202,36.48 43.774,36.457C44.633,36.433 45.301,35.741 45.301,34.906C45.325,34.071 44.633,33.38 43.774,33.356ZM38.822,40.582C38.191,40.603 37.695,41.133 37.716,41.765C37.737,42.396 38.267,42.892 38.898,42.871C39.53,42.85 40.025,42.32 40.004,41.688C39.983,41.057 39.453,40.561 38.822,40.582ZM22.977,42.706C22.643,42.706 22.333,42.873 22.166,43.159C21.999,43.445 21.999,43.803 22.166,44.089C22.333,44.375 22.643,44.542 22.977,44.542C23.478,44.542 23.907,44.137 23.907,43.612C23.883,43.135 23.478,42.73 22.977,42.706ZM19.662,40.583C19.256,40.583 18.875,40.798 18.66,41.155C18.445,41.513 18.445,41.943 18.66,42.3C18.875,42.658 19.233,42.873 19.662,42.873C20.282,42.873 20.807,42.372 20.807,41.728C20.807,41.108 20.306,40.583 19.662,40.583ZM16.728,37.411C15.989,37.411 15.393,38.007 15.393,38.746C15.393,39.486 15.989,40.082 16.728,40.082C17.468,40.082 18.064,39.486 18.064,38.746C18.04,38.007 17.468,37.411 16.728,37.411ZM14.749,33.356C14.176,33.332 13.652,33.642 13.365,34.119C13.079,34.596 13.079,35.216 13.365,35.693C13.652,36.17 14.176,36.48 14.749,36.457C15.607,36.433 16.275,35.741 16.275,34.906C16.275,34.071 15.583,33.38 14.749,33.356ZM14.033,28.299C13.031,28.299 12.221,29.11 12.221,30.112C12.221,31.114 13.031,31.925 14.033,31.925C15.035,31.925 15.846,31.114 15.846,30.112C15.822,29.11 15.035,28.299 14.033,28.299ZM14.749,23.72C14.176,23.72 13.652,24.006 13.365,24.483C13.079,24.96 13.079,25.58 13.365,26.057C13.652,26.534 14.176,26.844 14.749,26.82C15.607,26.797 16.275,26.105 16.275,25.27C16.275,24.435 15.583,23.744 14.749,23.72ZM16.728,20.118C16.251,20.118 15.798,20.357 15.56,20.786C15.321,21.191 15.321,21.716 15.56,22.122C15.798,22.527 16.251,22.789 16.728,22.789C17.444,22.766 18.04,22.193 18.04,21.454C18.016,20.738 17.444,20.142 16.728,20.118ZM19.662,17.304C19.042,17.304 18.517,17.804 18.517,18.448C18.517,19.069 19.018,19.593 19.662,19.593C20.282,19.593 20.807,19.092 20.807,18.448C20.807,17.828 20.306,17.304 19.662,17.304ZM22.977,15.61C22.476,15.61 22.047,16.016 22.047,16.54C22.047,17.041 22.452,17.47 22.977,17.47C23.478,17.47 23.907,17.065 23.907,16.54C23.883,16.039 23.478,15.61 22.977,15.61ZM26.221,14.751C25.768,14.751 25.41,15.109 25.41,15.562C25.41,16.016 25.768,16.373 26.221,16.373C26.65,16.373 27.008,16.016 27.008,15.586C26.984,15.109 26.65,14.751 26.221,14.751ZM29.25,14.513C28.868,14.513 28.558,14.823 28.558,15.205C28.558,15.586 28.868,15.896 29.25,15.896C29.631,15.896 29.941,15.586 29.941,15.205C29.941,14.823 29.631,14.513 29.25,14.513ZM32.302,14.751C31.873,14.751 31.515,15.109 31.515,15.538C31.515,15.968 31.873,16.326 32.302,16.326C32.732,16.326 33.09,15.968 33.09,15.538C33.113,15.109 32.756,14.751 32.302,14.751ZM35.546,15.61C35.212,15.61 34.902,15.777 34.735,16.063C34.568,16.349 34.568,16.707 34.735,16.993C34.902,17.28 35.212,17.447 35.546,17.447C36.047,17.447 36.476,17.041 36.476,16.516C36.476,15.992 36.071,15.61 35.546,15.61ZM38.861,17.327C38.241,17.327 37.716,17.828 37.716,18.472C37.716,19.092 38.217,19.617 38.861,19.617C39.481,19.617 40.006,19.116 40.006,18.472C40.006,17.828 39.481,17.327 38.861,17.327ZM41.795,20.118C41.056,20.118 40.459,20.714 40.459,21.454C40.459,22.193 41.056,22.789 41.795,22.789C42.534,22.789 43.131,22.193 43.131,21.454C43.131,20.714 42.534,20.118 41.795,20.118ZM43.774,23.72C43.202,23.72 42.677,24.006 42.391,24.483C42.105,24.96 42.105,25.58 42.391,26.057C42.677,26.534 43.202,26.844 43.774,26.82C44.633,26.797 45.301,26.105 45.301,25.27C45.301,24.411 44.633,23.72 43.774,23.72ZM36.619,32.473C36.357,32.473 36.119,32.593 35.999,32.807C35.88,33.022 35.88,33.308 35.999,33.523C36.119,33.737 36.357,33.881 36.619,33.857C37.001,33.833 37.287,33.523 37.287,33.165C37.311,32.807 37.001,32.497 36.619,32.473ZM34.878,35.073C34.616,35.073 34.377,35.192 34.258,35.407C34.139,35.622 34.139,35.908 34.258,36.123C34.377,36.337 34.64,36.48 34.878,36.457C35.26,36.433 35.546,36.123 35.546,35.765C35.546,35.407 35.26,35.097 34.878,35.073ZM32.279,36.743C32.016,36.743 31.754,36.886 31.611,37.124C31.468,37.363 31.468,37.649 31.611,37.888C31.754,38.126 31.992,38.269 32.279,38.269C32.708,38.269 33.042,37.935 33.042,37.506C33.042,37.077 32.708,36.743 32.279,36.743ZM29.226,37.196C28.653,37.196 28.2,37.649 28.2,38.222C28.2,38.794 28.653,39.247 29.226,39.247C29.798,39.247 30.251,38.794 30.251,38.222C30.228,37.649 29.774,37.196 29.226,37.196ZM29.274,44.304C28.892,44.304 28.582,44.614 28.582,44.996C28.582,45.377 28.892,45.687 29.274,45.687C29.655,45.687 29.965,45.377 29.965,44.996C29.941,44.614 29.631,44.304 29.274,44.304ZM26.149,36.576C25.505,36.576 24.98,37.101 24.98,37.745C24.98,38.389 25.505,38.913 26.149,38.913C26.793,38.913 27.318,38.389 27.318,37.745C27.318,37.101 26.793,36.576 26.149,36.576ZM23.382,34.62C22.667,34.62 22.095,35.192 22.095,35.908C22.095,36.624 22.667,37.196 23.382,37.196C24.098,37.196 24.67,36.624 24.67,35.908C24.67,35.192 24.098,34.62 23.382,34.62ZM21.546,31.996C20.95,31.996 20.473,32.473 20.473,33.07C20.473,33.666 20.95,34.143 21.546,34.143C22.142,34.143 22.619,33.666 22.619,33.07C22.643,32.497 22.142,31.996 21.546,31.996ZM21.117,29.134C20.664,29.134 20.282,29.516 20.282,29.969C20.282,30.422 20.664,30.804 21.117,30.804C21.57,30.804 21.951,30.422 21.951,29.969C21.951,29.492 21.594,29.134 21.117,29.134ZM21.856,26.32C21.474,26.32 21.164,26.63 21.164,27.011C21.164,27.393 21.474,27.703 21.856,27.703C22.238,27.703 22.548,27.393 22.548,27.011C22.572,26.63 22.238,26.32 21.856,26.32ZM18.589,24.96C18.135,24.96 17.754,25.342 17.754,25.795C17.754,26.248 18.135,26.63 18.589,26.63C19.042,26.63 19.423,26.248 19.423,25.795C19.423,25.342 19.042,24.96 18.589,24.96ZM23.621,23.744C23.359,23.744 23.12,23.863 23.001,24.077C22.882,24.292 22.882,24.578 23.001,24.793C23.12,25.008 23.382,25.151 23.621,25.127C24.003,25.127 24.313,24.817 24.313,24.435C24.289,24.054 23.979,23.744 23.621,23.744ZM26.197,21.931C25.768,21.931 25.434,22.265 25.434,22.694C25.434,23.123 25.768,23.457 26.197,23.457C26.626,23.457 26.96,23.123 26.96,22.694C26.96,22.289 26.626,21.931 26.197,21.931ZM28.244,21.927C28.222,22.492 28.664,22.969 29.23,22.991C29.795,23.013 30.272,22.571 30.294,22.005C30.315,21.44 29.874,20.963 29.308,20.941C28.743,20.919 28.266,21.361 28.244,21.927ZM32.326,21.287C31.682,21.287 31.158,21.812 31.158,22.456C31.158,23.1 31.682,23.624 32.326,23.624C32.97,23.624 33.495,23.1 33.495,22.456C33.495,21.812 32.97,21.287 32.326,21.287ZM35.093,23.004C34.377,23.004 33.805,23.577 33.805,24.292C33.805,25.008 34.377,25.58 35.093,25.58C35.808,25.58 36.381,25.008 36.381,24.292C36.381,23.577 35.808,23.004 35.093,23.004ZM36.929,26.033C36.333,26.033 35.856,26.51 35.856,27.107C35.856,27.703 36.333,28.18 36.929,28.18C37.526,28.18 38.003,27.703 38.003,27.107C38.003,26.51 37.526,26.033 36.929,26.033ZM34.115,30.78C33.76,30.78 33.471,31.068 33.471,31.424C33.471,31.779 33.76,32.068 34.115,32.068C34.471,32.068 34.759,31.779 34.759,31.424C34.759,31.068 34.471,30.78 34.115,30.78ZM32.851,32.783C32.326,32.783 31.897,33.213 31.897,33.737C31.897,34.262 32.326,34.692 32.851,34.692C33.376,34.692 33.805,34.262 33.805,33.737C33.829,33.213 33.4,32.783 32.851,32.783ZM30.394,34.071C29.846,34.071 29.393,34.525 29.393,35.073C29.393,35.622 29.846,36.075 30.394,36.075C30.943,36.075 31.396,35.622 31.396,35.073C31.396,34.525 30.943,34.071 30.394,34.071ZM27.485,34C27.175,34 26.865,34.167 26.722,34.453C26.555,34.739 26.555,35.073 26.722,35.336C26.888,35.622 27.175,35.789 27.485,35.789C27.986,35.789 28.367,35.383 28.367,34.906C28.391,34.405 27.986,34 27.485,34ZM25.338,32.545C24.98,32.545 24.694,32.831 24.694,33.189C24.694,33.547 24.98,33.833 25.338,33.833C25.696,33.833 25.982,33.547 25.982,33.189C26.006,32.855 25.696,32.545 25.338,32.545ZM24.48,30.661C24.217,30.661 24.003,30.875 24.003,31.138C24.003,31.4 24.217,31.615 24.48,31.615C24.742,31.615 24.957,31.4 24.957,31.138C24.957,30.875 24.742,30.661 24.48,30.661ZM24.432,28.204C24.074,28.204 23.788,28.49 23.788,28.848C23.788,29.206 24.074,29.492 24.432,29.492C24.79,29.492 25.076,29.206 25.076,28.848C25.076,28.49 24.79,28.204 24.432,28.204ZM25.696,25.556C25.171,25.556 24.742,25.986 24.742,26.51C24.742,27.035 25.171,27.464 25.696,27.464C26.221,27.464 26.65,27.035 26.65,26.51C26.65,25.986 26.221,25.556 25.696,25.556ZM28.153,24.173C27.604,24.173 27.151,24.626 27.151,25.175C27.151,25.723 27.604,26.176 28.153,26.176C28.701,26.176 29.154,25.723 29.154,25.175C29.154,24.626 28.701,24.173 28.153,24.173ZM31.062,24.483C30.728,24.483 30.442,24.65 30.275,24.912C30.108,25.199 30.108,25.532 30.275,25.819C30.442,26.105 30.752,26.272 31.062,26.248C31.539,26.224 31.921,25.843 31.921,25.365C31.921,24.888 31.539,24.507 31.062,24.483ZM33.185,26.391C32.827,26.391 32.541,26.677 32.541,27.035C32.541,27.393 32.827,27.679 33.185,27.679C33.543,27.679 33.829,27.393 33.829,27.035C33.853,26.677 33.567,26.391 33.185,26.391ZM34.091,28.657C33.829,28.657 33.614,28.872 33.614,29.134C33.614,29.396 33.829,29.611 34.091,29.611C34.354,29.611 34.568,29.396 34.568,29.134C34.568,28.872 34.354,28.657 34.091,28.657ZM37.359,29.396C36.906,29.396 36.524,29.778 36.524,30.231C36.524,30.684 36.906,31.066 37.359,31.066C37.812,31.066 38.194,30.684 38.194,30.231C38.194,29.778 37.812,29.396 37.359,29.396ZM40.817,30.422C40.316,30.422 39.935,30.828 39.935,31.305C39.935,31.805 40.34,32.187 40.817,32.187C41.318,32.187 41.699,31.782 41.699,31.305C41.699,30.828 41.318,30.422 40.817,30.422ZM39.935,33.547C39.481,33.547 39.1,33.928 39.1,34.381C39.1,34.835 39.481,35.216 39.935,35.216C40.388,35.216 40.769,34.835 40.769,34.381C40.769,33.928 40.412,33.547 39.935,33.547ZM38.432,36.17C38.05,36.17 37.716,36.48 37.716,36.886C37.716,37.268 38.027,37.601 38.432,37.601C38.814,37.601 39.124,37.268 39.124,36.886C39.124,36.504 38.814,36.194 38.432,36.17ZM36.619,38.126C36.405,38.126 36.19,38.245 36.071,38.436C35.952,38.627 35.952,38.866 36.071,39.056C36.19,39.247 36.381,39.367 36.619,39.367C36.953,39.367 37.239,39.104 37.239,38.746C37.239,38.412 36.953,38.126 36.619,38.126ZM34.711,39.557C34.425,39.557 34.187,39.796 34.187,40.082C34.187,40.368 34.425,40.607 34.711,40.607C34.998,40.607 35.236,40.368 35.236,40.082C35.236,39.796 34.998,39.557 34.711,39.557ZM32.541,40.368C32.207,40.368 31.921,40.631 31.921,40.988C31.921,41.322 32.183,41.609 32.541,41.609C32.875,41.609 33.161,41.346 33.161,40.988C33.137,40.631 32.875,40.368 32.541,40.368ZM29.989,40.774C29.607,40.774 29.274,41.084 29.274,41.489C29.274,41.871 29.584,42.205 29.989,42.205C30.371,42.205 30.705,41.895 30.705,41.489C30.681,41.084 30.371,40.774 29.989,40.774ZM27.079,40.488C26.578,40.488 26.173,40.893 26.173,41.394C26.173,41.895 26.578,42.3 27.079,42.3C27.58,42.3 27.986,41.895 27.986,41.394C27.986,40.893 27.58,40.488 27.079,40.488ZM24.003,39.39C23.406,39.39 22.929,39.867 22.929,40.464C22.929,41.06 23.406,41.537 24.003,41.537C24.599,41.537 25.076,41.06 25.076,40.464C25.1,39.867 24.599,39.39 24.003,39.39ZM21.308,37.339C20.854,37.339 20.425,37.578 20.187,37.959C19.948,38.365 19.948,38.842 20.187,39.247C20.425,39.653 20.854,39.891 21.308,39.867C21.999,39.844 22.548,39.295 22.548,38.603C22.548,37.935 21.999,37.363 21.308,37.339ZM19.042,34.286C18.279,34.286 17.658,34.906 17.658,35.669C17.658,36.433 18.279,37.053 19.042,37.053C19.805,37.053 20.425,36.433 20.425,35.669C20.425,34.882 19.805,34.286 19.042,34.286ZM16.669,32.098C16.626,32.702 17.082,33.227 17.686,33.27C18.29,33.313 18.815,32.857 18.858,32.253C18.901,31.649 18.445,31.124 17.841,31.081C17.237,31.038 16.712,31.494 16.669,32.098ZM16.815,28.828C16.788,29.314 17.161,29.731 17.647,29.758C18.133,29.785 18.55,29.412 18.577,28.925C18.604,28.439 18.231,28.022 17.745,27.995C17.258,27.968 16.842,28.341 16.815,28.828ZM20.091,22.599C19.829,22.599 19.59,22.718 19.471,22.956C19.352,23.171 19.352,23.457 19.471,23.672C19.59,23.887 19.853,24.03 20.091,24.03C20.473,24.03 20.783,23.696 20.783,23.314C20.783,22.909 20.473,22.599 20.091,22.599ZM21.904,20.834C21.57,20.834 21.284,21.096 21.284,21.454C21.284,21.788 21.546,22.074 21.904,22.074C22.262,22.074 22.524,21.812 22.524,21.454C22.524,21.12 22.238,20.834 21.904,20.834ZM23.812,19.593C23.526,19.593 23.287,19.832 23.287,20.118C23.287,20.404 23.526,20.643 23.812,20.643C24.098,20.643 24.337,20.404 24.337,20.118C24.337,19.808 24.098,19.593 23.812,19.593ZM25.982,18.615C25.648,18.615 25.362,18.878 25.362,19.236C25.362,19.569 25.624,19.856 25.982,19.856C26.316,19.856 26.602,19.593 26.602,19.236C26.602,18.878 26.316,18.615 25.982,18.615ZM28.534,17.995C28.272,17.995 28.033,18.114 27.914,18.353C27.795,18.568 27.795,18.854 27.914,19.069C28.033,19.283 28.296,19.426 28.534,19.426C28.916,19.426 29.226,19.092 29.226,18.711C29.226,18.329 28.916,18.019 28.534,17.995ZM31.444,17.876C31.11,17.876 30.8,18.043 30.633,18.329C30.466,18.615 30.466,18.973 30.633,19.259C30.8,19.546 31.11,19.713 31.444,19.713C31.945,19.713 32.35,19.283 32.35,18.782C32.35,18.281 31.945,17.876 31.444,17.876ZM34.425,18.568C33.829,18.568 33.328,19.045 33.328,19.665C33.328,20.261 33.805,20.762 34.425,20.762C35.021,20.762 35.522,20.285 35.522,19.665C35.522,19.069 35.021,18.568 34.425,18.568ZM37.239,20.285C36.524,20.285 35.975,20.857 35.975,21.549C35.975,22.241 36.548,22.813 37.239,22.813C37.955,22.813 38.504,22.241 38.504,21.549C38.504,20.857 37.931,20.285 37.239,20.285ZM39.481,23.147C38.981,23.147 38.527,23.41 38.265,23.839C38.003,24.268 38.003,24.793 38.265,25.222C38.527,25.652 38.981,25.914 39.481,25.914C40.245,25.89 40.841,25.294 40.841,24.531C40.817,23.791 40.221,23.171 39.481,23.147ZM40.745,26.94C40.364,26.94 39.982,27.131 39.791,27.464C39.601,27.798 39.601,28.228 39.791,28.562C39.982,28.896 40.364,29.11 40.745,29.086C41.342,29.063 41.795,28.585 41.795,28.013C41.795,27.441 41.342,26.964 40.745,26.94ZM46.303,30.088C46.303,29.11 45.492,28.299 44.49,28.275C43.488,28.275 42.677,29.086 42.677,30.088C42.677,31.09 43.488,31.901 44.49,31.901C45.492,31.901 46.303,31.09 46.303,30.088Z" style="fill:white;"/>
    </g>
</svg>
