<?xml version="1.0" encoding="UTF-8" standalone="no"?>
<!DOCTYPE svg PUBLIC "-//W3C//DTD SVG 1.1//EN" "http://www.w3.org/Graphics/SVG/1.1/DTD/svg11.dtd">
<svg width="100%" height="100%" viewBox="0 0 64 64" version="1.1" xmlns="http://www.w3.org/2000/svg" xmlns:xlink="http://www.w3.org/1999/xlink" xml:space="preserve" xmlns:serif="http://www.serif.com/" style="fill-rule:evenodd;clip-rule:evenodd;stroke-linejoin:round;stroke-miterlimit:2;">
    <g transform="matrix(1.42519,0,0,1.42509,-9.70329,-10.8954)">
        <circle cx="29.261" cy="30.098" r="22.453" style="fill:rgb(42,42,42);"/>
    </g>
    <g transform="matrix(0.339911,0,0,0.339911,7.71333,9.78679)">
        <path d="M132.3,79C135.9,79.1 138.8,82 138.7,85.5C138.7,89 135.9,91.9 132.3,92C129.9,92.1 127.7,90.8 126.5,88.8C125.3,86.8 125.3,84.2 126.5,82.2C127.7,80.2 129.9,79 132.3,79ZM124,96C127.1,96 129.6,98.5 129.6,101.5C129.6,104.6 127.1,107.1 124,107.1C120.9,107.1 118.4,104.6 118.4,101.5C118.4,98.5 120.9,96 124,96ZM111.535,109.297C114.183,109.209 116.404,111.287 116.492,113.934C116.58,116.582 114.502,118.803 111.855,118.891C109.207,118.979 106.986,116.901 106.898,114.254C106.81,111.606 108.888,109.385 111.535,109.297ZM97.8,118.3C100,118.3 101.7,120 101.7,122.2C101.7,124.4 100,126.1 97.8,126.1C95.6,126.1 93.9,124.4 93.9,122.2C93.9,120 95.6,118.3 97.8,118.3ZM84.2,123C86.1,123 87.6,124.5 87.5,126.3C87.5,128.1 86,129.6 84.2,129.6C82.4,129.6 80.9,128.1 80.9,126.3C80.9,124.5 82.4,123 84.2,123ZM71.5,124.9C73,124.9 74.3,126.2 74.4,127.8C74.4,129.4 73.1,130.7 71.5,130.7C69.9,130.7 68.6,129.4 68.6,127.8C68.6,126.2 69.9,124.9 71.5,124.9ZM58.7,123C60.5,123 62,124.5 62,126.3C62,128.1 60.5,129.6 58.7,129.6C56.9,129.6 55.4,128.1 55.4,126.3C55.4,124.5 56.9,123 58.7,123ZM45.1,118.2C47.2,118.3 48.9,120 49,122C49,124.2 47.2,125.9 45.1,125.9C43.7,125.9 42.4,125.2 41.7,124C41,122.8 41,121.3 41.7,120.1C42.4,118.9 43.7,118.2 45.1,118.2ZM31.2,109.3C33.9,109.3 36,111.5 36,114.1C36,116.8 33.8,118.9 31.2,118.9C29.4,118.9 27.9,118 27,116.5C26.1,115 26.1,113.2 27,111.7C27.9,110.2 29.5,109.3 31.2,109.3ZM18.9,96C22,96 24.4,98.5 24.5,101.6C24.5,104.7 22,107.2 18.9,107.2C15.8,107.2 13.3,104.7 13.3,101.6C13.3,98.5 15.8,96 18.9,96ZM10.6,79C14.1,79.1 17,82 17,85.5C17,89 14.2,91.9 10.6,92C8.2,92.1 6,90.8 4.8,88.8C3.6,86.8 3.6,84.2 4.8,82.2C6,80.2 8.2,78.9 10.6,79ZM7.6,57.8C11.8,57.8 15.1,61.2 15.2,65.4C15.2,69.6 11.8,73 7.6,73C3.4,73 0,69.6 0,65.4C0,61.2 3.4,57.8 7.6,57.8ZM10.6,38.6C14.1,38.7 17,41.6 17,45.1C17,48.6 14.2,51.5 10.6,51.6C8.2,51.7 6,50.4 4.8,48.4C3.6,46.4 3.6,43.8 4.8,41.8C6,39.8 8.2,38.6 10.6,38.6ZM18.9,23.5C21.9,23.6 24.3,26.1 24.4,29.1C24.4,32.2 21.9,34.6 18.9,34.7C16.9,34.7 15,33.6 14,31.9C13,30.2 13,28 14,26.3C15,24.5 16.9,23.5 18.9,23.5ZM31.2,11.7C33.9,11.7 36,13.9 36,16.5C36,19.2 33.8,21.3 31.2,21.3C28.5,21.3 26.4,19.1 26.4,16.5C26.4,13.8 28.6,11.7 31.2,11.7ZM45.1,4.6C47.2,4.6 48.9,6.4 49,8.5C49,10.7 47.2,12.4 45.1,12.4C42.9,12.4 41.2,10.6 41.2,8.5C41.2,6.3 43,4.6 45.1,4.6ZM58.7,1C60.5,1 61.9,2.5 62,4.5C62,6.3 60.5,7.8 58.7,7.8C56.8,7.8 55.3,6.3 55.3,4.4C55.3,2.5 56.8,1 58.7,1ZM71.4,0C73,0 74.3,1.3 74.3,2.9C74.3,4.5 73,5.8 71.4,5.8C69.8,5.8 68.5,4.5 68.5,2.9C68.5,1.3 69.8,0 71.4,0ZM84.2,1C86.1,1 87.6,2.5 87.5,4.3C87.5,6.1 86,7.6 84.2,7.6C82.4,7.6 80.9,6.1 80.9,4.3C80.9,2.5 82.4,1 84.2,1ZM97.8,4.6C100,4.6 101.7,6.2 101.7,8.4C101.7,10.6 99.9,12.3 97.8,12.3C96.4,12.3 95.1,11.6 94.4,10.4C93.7,9.2 93.7,7.7 94.4,6.5C95.1,5.3 96.4,4.6 97.8,4.6ZM111.7,11.8C114.3,11.8 116.5,13.9 116.5,16.6C116.5,19.3 114.3,21.4 111.7,21.4C109,21.4 106.9,19.2 106.9,16.6C106.9,13.9 109.1,11.8 111.7,11.8ZM124,23.5C127.1,23.5 129.6,26 129.6,29.1C129.6,32.2 127.1,34.7 124,34.7C120.9,34.7 118.4,32.2 118.4,29.1C118.4,26 120.9,23.5 124,23.5ZM132.3,38.6C135.9,38.6 138.7,41.5 138.7,45.1C138.7,48.6 135.9,51.5 132.3,51.6C129.9,51.7 127.7,50.4 126.5,48.4C125.3,46.4 125.3,43.8 126.5,41.8C127.7,39.8 129.9,38.6 132.3,38.6ZM102.3,75.3C103.9,75.4 105.2,76.7 105.1,78.2C105.1,79.7 103.9,81 102.3,81.1C101.2,81.2 100.2,80.6 99.7,79.7C99.2,78.8 99.2,77.6 99.7,76.7C100.2,75.8 101.2,75.3 102.3,75.3ZM95,86.2C96.6,86.3 97.8,87.6 97.8,89.1C97.8,90.6 96.6,91.9 95,92C94,92.1 92.9,91.5 92.4,90.6C91.9,89.7 91.9,88.5 92.4,87.6C92.9,86.7 93.9,86.2 95,86.2ZM84.1,93.2C85.9,93.2 87.3,94.6 87.3,96.4C87.3,98.2 85.9,99.6 84.1,99.6C82.9,99.6 81.9,99 81.3,98C80.7,97 80.7,95.8 81.3,94.8C81.9,93.8 83,93.2 84.1,93.2ZM71.3,95.1C73.6,95.1 75.5,97 75.6,99.4C75.6,101.8 73.7,103.7 71.3,103.7C68.9,103.7 67,101.8 67,99.4C67,97 68.9,95.1 71.3,95.1ZM58.4,92.5C61.1,92.5 63.3,94.7 63.3,97.4C63.3,100.1 61.1,102.3 58.4,102.3C55.7,102.3 53.5,100.1 53.5,97.4C53.5,94.7 55.7,92.5 58.4,92.5ZM46.8,84.3C49.8,84.3 52.2,86.7 52.2,89.7C52.2,92.7 49.8,95.1 46.8,95.1C43.8,95.1 41.4,92.7 41.4,89.7C41.4,86.7 43.8,84.3 46.8,84.3ZM39.1,73.3C41.6,73.3 43.7,75.4 43.6,77.8C43.6,80.3 41.6,82.3 39.1,82.3C36.6,82.3 34.6,80.3 34.6,77.8C34.6,75.3 36.6,73.3 39.1,73.3ZM37.3,61.3C39.3,61.3 40.8,62.8 40.8,64.8C40.8,66.7 39.2,68.3 37.3,68.3C35.4,68.3 33.8,66.7 33.8,64.8C33.8,62.9 35.4,61.3 37.3,61.3ZM40.4,49.5C42,49.5 43.4,50.8 43.3,52.4C43.3,54 42,55.3 40.4,55.3C38.8,55.3 37.5,54 37.5,52.4C37.5,50.8 38.8,49.5 40.4,49.5ZM47.8,38.7C49.3,38.7 50.6,40 50.7,41.6C50.7,43.2 49.4,44.5 47.8,44.5C46.8,44.6 45.7,44 45.2,43.1C44.7,42.2 44.7,41 45.2,40.1C45.7,39.2 46.7,38.7 47.8,38.7ZM58.6,31.1C60.4,31.1 61.8,32.6 61.8,34.3C61.8,36.1 60.4,37.5 58.6,37.5C56.8,37.5 55.4,36.1 55.4,34.3C55.4,32.5 56.8,31.1 58.6,31.1ZM67.184,31.082C67.275,28.711 69.274,26.859 71.646,26.95C74.017,27.042 75.869,29.041 75.778,31.412C75.686,33.784 73.687,35.636 71.316,35.544C68.944,35.453 67.092,33.454 67.184,31.082ZM84.3,28.4C87,28.4 89.2,30.6 89.2,33.3C89.2,36 87,38.2 84.3,38.2C81.6,38.2 79.4,36 79.4,33.3C79.4,30.6 81.6,28.4 84.3,28.4ZM95.9,35.6C98.9,35.6 101.3,38 101.3,41C101.3,44 98.9,46.4 95.9,46.4C92.9,46.4 90.5,44 90.5,41C90.5,38 92.9,35.6 95.9,35.6ZM103.6,48.3C106.1,48.3 108.1,50.3 108.1,52.8C108.1,55.3 106.1,57.3 103.6,57.3C101.1,57.3 99.1,55.3 99.1,52.8C99.1,50.3 101.1,48.3 103.6,48.3ZM91.8,68.2C93.29,68.2 94.5,69.41 94.5,70.9C94.5,72.39 93.29,73.6 91.8,73.6C90.31,73.6 89.1,72.39 89.1,70.9C89.1,69.41 90.31,68.2 91.8,68.2ZM86.5,76.6C88.8,76.6 90.6,78.4 90.5,80.6C90.5,82.8 88.7,84.6 86.5,84.6C84.3,84.6 82.5,82.8 82.5,80.6C82.5,78.4 84.3,76.6 86.5,76.6ZM76.2,82C78.5,82 80.4,83.9 80.4,86.2C80.4,88.5 78.5,90.4 76.2,90.4C73.9,90.4 72,88.5 72,86.2C72,83.9 73.9,82 76.2,82ZM64,81.7C66.1,81.7 67.8,83.4 67.7,85.5C67.7,87.5 66.1,89.2 64,89.2C62.7,89.2 61.5,88.5 60.8,87.3C60.1,86.2 60.1,84.8 60.8,83.6C61.4,82.4 62.7,81.7 64,81.7ZM55,75.6C56.5,75.6 57.8,76.9 57.7,78.3C57.7,79.8 56.5,81 55,81C53.5,81 52.3,79.8 52.3,78.3C52.3,76.8 53.5,75.6 55,75.6ZM51.4,67.7C52.5,67.7 53.4,68.6 53.4,69.7C53.4,70.8 52.5,71.7 51.4,71.7C50.3,71.7 49.4,70.8 49.4,69.7C49.4,68.6 50.3,67.7 51.4,67.7ZM51.2,57.4C52.7,57.4 53.9,58.6 53.9,60.1C53.9,61.6 52.7,62.8 51.2,62.8C49.7,62.8 48.5,61.6 48.5,60.1C48.5,58.6 49.7,57.4 51.2,57.4ZM56.5,46.3C58.7,46.3 60.5,48.1 60.5,50.3C60.5,52.5 58.7,54.3 56.5,54.3C54.3,54.3 52.5,52.5 52.5,50.3C52.5,48.1 54.3,46.3 56.5,46.3ZM66.8,40.5C69.1,40.5 71,42.4 71,44.7C71,47 69.1,48.9 66.8,48.9C64.5,48.9 62.6,47 62.6,44.7C62.6,42.4 64.5,40.5 66.8,40.5ZM79,41.8C81,41.9 82.6,43.5 82.6,45.5C82.6,47.5 81,49.1 79,49.2C77.7,49.3 76.4,48.6 75.7,47.4C75,46.2 75,44.8 75.7,43.6C76.4,42.5 77.6,41.8 79,41.8ZM87.9,49.8C89.5,49.8 90.7,51 90.6,52.5C90.6,54 89.4,55.2 87.9,55.2C86.4,55.2 85.2,54 85.2,52.5C85.2,51 86.4,49.8 87.9,49.8ZM91.7,59.3C92.8,59.3 93.7,60.2 93.7,61.3C93.7,62.4 92.8,63.3 91.7,63.3C90.6,63.3 89.7,62.4 89.7,61.3C89.7,60.2 90.6,59.3 91.7,59.3ZM105.4,62.4C107.3,62.4 108.9,64 108.9,65.9C108.9,67.8 107.3,69.4 105.4,69.4C103.5,69.4 101.9,67.8 101.9,65.9C101.9,64 103.5,62.4 105.4,62.4ZM119.9,66.7C122,66.7 123.6,68.4 123.6,70.4C123.6,72.4 122,74.1 119.9,74.1C117.9,74.1 116.2,72.5 116.2,70.4C116.2,68.4 117.8,66.7 119.9,66.7ZM116.2,79.8C118.2,79.8 119.7,81.4 119.7,83.3C119.7,85.2 118.1,86.8 116.2,86.8C114.3,86.8 112.7,85.2 112.7,83.3C112.7,81.4 114.3,79.8 116.2,79.8ZM109.9,90.8C111.5,90.9 112.8,92.2 112.8,93.8C112.8,95.4 111.5,96.8 109.9,96.8C108.2,96.8 106.9,95.4 106.9,93.8C106.9,92.1 108.3,90.8 109.9,90.8ZM102.3,99C103.7,99 104.9,100.2 104.9,101.6C104.9,103.1 103.7,104.2 102.3,104.2C101.3,104.2 100.5,103.7 100,102.9C99.5,102.1 99.5,101.1 100,100.3C100.5,99.5 101.4,99 102.3,99ZM94.3,105C95.5,105 96.5,106 96.5,107.2C96.5,108.4 95.5,109.4 94.3,109.4C93.1,109.4 92.1,108.4 92.1,107.2C92.1,106 93.1,105 94.3,105ZM85.2,108.4C86.6,108.4 87.7,109.5 87.8,111C87.8,112.5 86.6,113.6 85.2,113.6C83.7,113.6 82.6,112.4 82.6,111C82.6,109.5 83.8,108.4 85.2,108.4ZM74.5,110.1C76.1,110.1 77.4,111.4 77.5,113.1C77.5,114.8 76.1,116.1 74.5,116.1C72.8,116.1 71.5,114.7 71.5,113.1C71.5,111.4 72.9,110.1 74.5,110.1ZM62.3,108.9C64.4,108.9 66.1,110.6 66.1,112.7C66.1,114.8 64.4,116.5 62.3,116.5C60.2,116.5 58.5,114.8 58.5,112.7C58.5,110.6 60.2,108.9 62.3,108.9ZM49.4,104.3C51.9,104.3 54,106.3 53.9,108.8C53.9,111.3 51.9,113.3 49.4,113.3C46.9,113.3 44.9,111.3 44.9,108.8C44.9,106.3 46.9,104.3 49.4,104.3ZM38.1,95.7C41,95.8 43.3,98.2 43.3,101C43.3,103.9 41,106.2 38.1,106.3C36.2,106.4 34.4,105.4 33.4,103.7C32.4,102 32.4,100 33.4,98.3C34.4,96.7 36.2,95.7 38.1,95.7ZM28.6,82.9C31.8,82.9 34.4,85.4 34.4,88.7C34.4,91.9 31.8,94.5 28.6,94.5C25.4,94.5 22.8,91.9 22.8,88.7C22.8,85.5 25.4,82.9 28.6,82.9ZM18.653,73.725C18.833,71.193 21.035,69.283 23.567,69.463C26.1,69.643 28.01,71.845 27.83,74.377C27.65,76.91 25.448,78.82 22.915,78.64C20.383,78.46 18.473,76.258 18.653,73.725ZM19.262,60.016C19.375,57.977 21.122,56.413 23.161,56.526C25.2,56.639 26.764,58.386 26.651,60.425C26.538,62.464 24.791,64.028 22.752,63.915C20.713,63.802 19.149,62.055 19.262,60.016ZM26.7,43.8C28.6,43.8 30.2,45.4 30.2,47.3C30.2,49.2 28.6,50.8 26.7,50.8C24.8,50.8 23.2,49.2 23.2,47.3C23.2,45.4 24.8,43.8 26.7,43.8ZM33,33.9C34.6,33.9 35.9,35.2 35.9,36.9C35.9,38.5 34.6,39.9 33,39.9C32,39.9 30.9,39.3 30.4,38.4C29.9,37.5 29.9,36.3 30.4,35.4C30.9,34.4 31.9,33.9 33,33.9ZM40.6,26.5C42,26.5 43.2,27.7 43.2,29.1C43.2,30.6 42.1,31.7 40.6,31.7C39.1,31.7 38,30.5 38,29.1C38,27.6 39.2,26.5 40.6,26.5ZM48.6,21.3C49.8,21.3 50.8,22.2 50.8,23.5C50.8,24.7 49.8,25.7 48.6,25.7C47.4,25.7 46.4,24.7 46.4,23.5C46.4,22.3 47.4,21.3 48.6,21.3ZM57.7,17.2C59.1,17.2 60.3,18.3 60.3,19.8C60.3,21.3 59.1,22.4 57.7,22.4C56.2,22.4 55.1,21.2 55.1,19.8C55.1,18.3 56.3,17.2 57.7,17.2ZM68.4,14.6C70,14.7 71.3,16 71.3,17.6C71.3,19.2 70,20.6 68.4,20.6C67.4,20.6 66.3,20 65.8,19.1C65.3,18.2 65.3,17 65.8,16.1C66.3,15.1 67.3,14.6 68.4,14.6ZM80.6,14.1C82.7,14.1 84.4,15.8 84.4,17.9C84.4,20 82.7,21.8 80.6,21.8C79.2,21.8 77.9,21.1 77.2,19.9C76.5,18.7 76.5,17.2 77.2,16C77.9,14.8 79.2,14.1 80.6,14.1ZM93.1,17C95.6,17 97.7,19.1 97.7,21.6C97.7,24.2 95.6,26.2 93.1,26.2C90.5,26.2 88.5,24.1 88.5,21.6C88.5,19 90.6,17 93.1,17ZM104.9,24.2C107.8,24.2 110.2,26.6 110.2,29.5C110.2,32.4 107.9,34.8 104.9,34.8C102,34.8 99.6,32.4 99.6,29.5C99.6,26.6 101.9,24.2 104.9,24.2ZM114.3,36.2C117.4,36.3 119.9,38.9 120,42C120,45.2 117.5,47.7 114.3,47.8C112.2,47.8 110.3,46.7 109.2,44.9C108.1,43.1 108.1,40.9 109.2,39.1C110.3,37.3 112.2,36.2 114.3,36.2ZM119.6,52.1C122.1,52.2 124,54.2 124,56.6C124,59 122.1,61 119.6,61.1C118,61.2 116.4,60.3 115.6,58.9C114.8,57.5 114.8,55.7 115.6,54.3C116.4,52.9 118,52.1 119.6,52.1ZM142.9,65.3C142.9,69.5 139.5,72.9 135.3,72.9C131.1,72.9 127.7,69.5 127.7,65.3C127.7,61.1 131.1,57.7 135.3,57.7C139.5,57.8 142.9,61.2 142.9,65.3Z" style="fill:rgb(236,101,25);"/>
    </g>
</svg>
