<?xml version="1.0" encoding="UTF-8" standalone="no"?>
<!DOCTYPE svg PUBLIC "-//W3C//DTD SVG 1.1//EN" "http://www.w3.org/Graphics/SVG/1.1/DTD/svg11.dtd">
<svg width="100%" height="100%" viewBox="0 0 300 300" version="1.1" xmlns="http://www.w3.org/2000/svg" xmlns:xlink="http://www.w3.org/1999/xlink" xml:space="preserve" xmlns:serif="http://www.serif.com/" style="fill-rule:evenodd;clip-rule:evenodd;stroke-linejoin:round;stroke-miterlimit:2;">
    <g transform="matrix(1.64185,0,0,1.64185,-117.053,-96.236)">
        <path d="M162.654,58.614C213.077,58.614 254.014,99.552 254.014,149.975C254.014,200.398 213.077,241.335 162.654,241.335C112.231,241.335 71.293,200.398 71.293,149.975C71.293,99.552 112.231,58.614 162.654,58.614ZM162.619,110.484C162.619,110.484 127.454,110.484 118.628,112.784C113.902,114.109 110.011,118.012 108.69,122.822C106.397,131.675 106.397,150.01 106.397,150.01C106.397,150.01 106.397,168.414 108.69,177.128C110.011,181.938 113.833,185.771 118.628,187.096C127.523,189.466 162.619,189.466 162.619,189.466C162.619,189.466 197.854,189.466 206.68,187.166C211.475,185.841 215.297,182.077 216.548,177.197C218.911,168.414 218.911,150.08 218.911,150.08C218.911,150.08 218.98,131.675 216.548,122.822C215.297,118.012 211.475,114.179 206.68,112.924C197.854,110.484 162.619,110.484 162.619,110.484ZM151.43,133.07L180.688,150.01L151.43,166.879L151.43,133.07Z" style="fill:white;"/>
    </g>
</svg>
