<?xml version="1.0" encoding="UTF-8" standalone="no"?>
<!DOCTYPE svg PUBLIC "-//W3C//DTD SVG 1.1//EN" "http://www.w3.org/Graphics/SVG/1.1/DTD/svg11.dtd">
<svg width="100%" height="100%" viewBox="0 0 300 300" version="1.1" xmlns="http://www.w3.org/2000/svg" xmlns:xlink="http://www.w3.org/1999/xlink" xml:space="preserve" xmlns:serif="http://www.serif.com/" style="fill-rule:evenodd;clip-rule:evenodd;stroke-linejoin:round;stroke-miterlimit:2;">
    <g transform="matrix(1.64185,0,0,1.64185,-117.053,-96.236)">
        <circle cx="162.654" cy="149.975" r="91.36" style="fill:rgb(255,0,0);"/>
    </g>
    <g transform="matrix(0.913271,0,0,0.916089,13.0094,12.5866)">
        <path d="M149.938,79.223C149.938,79.223 86.719,79.223 70.852,83.346C62.356,85.72 55.36,92.715 52.986,101.336C48.863,117.203 48.863,150.063 48.863,150.063C48.863,150.063 48.863,183.047 52.986,198.664C55.36,207.285 62.231,214.155 70.852,216.529C86.844,220.777 149.938,220.777 149.938,220.777C149.938,220.777 213.282,220.777 229.148,216.654C237.769,214.281 244.64,207.535 246.889,198.789C251.137,183.047 251.137,150.188 251.137,150.188C251.137,150.188 251.262,117.203 246.889,101.336C244.64,92.715 237.769,85.845 229.148,83.596C213.282,79.223 149.938,79.223 149.938,79.223ZM129.822,119.703L182.422,150.063L129.822,180.297L129.822,119.703Z" style="fill:white;fill-rule:nonzero;"/>
    </g>
</svg>
